<?xml version="1.0" standalone="no"?>
<!DOCTYPE svg PUBLIC "-//W3C//DTD SVG 20010904//EN"
 "http://www.w3.org/TR/2001/REC-SVG-20010904/DTD/svg10.dtd">
<svg version="1.0" xmlns="http://www.w3.org/2000/svg"
 width="155.000000pt" height="155.000000pt" viewBox="0 0 155.000000 155.000000"
 preserveAspectRatio="xMidYMid meet">
<metadata>
Created by potrace 1.14, written by Peter Selinger 2001-2017
</metadata>
<g transform="translate(0.000000,155.000000) scale(0.100000,-0.100000)"
fill="#000000" stroke="none">
<path d="M0 775 l0 -655 773 2 772 3 3 653 2 652 -775 0 -775 0 0 -655z m1410
20 l0 -495 -245 0 -245 0 42 38 c43 39 72 92 83 154 l7 37 57 3 56 3 3 123 3
122 -203 -2 -203 -3 -3 -107 -3 -108 -129 0 -129 0 -7 46 c-3 25 -4 90 -2 144
4 83 9 105 32 144 29 50 74 87 125 105 22 7 123 11 282 11 l249 0 0 140 0 140
115 0 115 0 0 -495z"/>
</g>
</svg>
