<?xml version="1.0" encoding="UTF-8"?>
<svg id="Ebene_1" xmlns="http://www.w3.org/2000/svg" viewBox="0 0 30 30">
  <defs>
    <style>
      .cls-1 {
        fill: #fff;
      }
    </style>
  </defs>
  <g>
    <g>
      <path class="cls-1" d="M15,29.13c-2.3,0-4.52-.51-6.43-1.47-.25-.12-.35-.43-.22-.67.12-.25.43-.35.67-.22,1.77.89,3.84,1.36,5.98,1.36s4.24-.48,6.02-1.38c.25-.13.55-.03.67.22.13.25.03.55-.22.67-1.92.97-4.16,1.49-6.47,1.49Z"/>
      <path class="cls-1" d="M25.79,22.93c-.06,0-.11,0-.17-.03-.26-.09-.4-.38-.3-.64.24-.66.36-1.34.36-2.03,0-1.57-.63-3.1-1.81-4.4-.11-.12-.15-.28-.12-.43.03-.15.13-.29.27-.36.91-.44,1.67-1.12,2.21-1.96.56-.86.85-1.86.85-2.89,0-2.01-1.12-3.85-2.93-4.79-.25-.13-.34-.43-.21-.67.13-.25.43-.34.67-.21,2.14,1.11,3.47,3.29,3.47,5.68,0,1.22-.35,2.41-1.01,3.44-.53.82-1.23,1.5-2.06,2.01,1.09,1.38,1.67,2.96,1.67,4.59,0,.8-.14,1.6-.42,2.37-.07.2-.27.33-.47.33Z"/>
      <path class="cls-1" d="M4.21,22.92c-.21,0-.4-.13-.47-.33-.28-.77-.41-1.56-.41-2.36,0-1.63.57-3.21,1.67-4.59-.83-.51-1.53-1.19-2.06-2.01-.66-1.03-1.01-2.21-1.01-3.44,0-2.11,1.05-4.08,2.8-5.27.23-.16.54-.1.7.13.16.23.1.54-.13.7-1.48,1.01-2.36,2.67-2.36,4.45,0,1.03.29,2.03.85,2.89.54.84,1.31,1.52,2.21,1.96.14.07.24.2.27.36.03.15-.01.31-.12.43-1.19,1.3-1.81,2.83-1.81,4.4,0,.69.12,1.37.36,2.03.09.26-.04.55-.3.64-.06.02-.11.03-.17.03Z"/>
    </g>
    <path class="cls-1" d="M16.9,22.89c0,.93-.85,2.29-1.9,2.29s-1.9-1.36-1.9-2.29.85-1.09,1.9-1.09,1.9.15,1.9,1.09Z"/>
    <path class="cls-1" d="M4.56,28.26c-.11,0-.21-.03-.3-.1-.22-.17-.26-.48-.09-.7.92-1.21,2.06-2.21,3.39-2.97.23-.13.46-.25.69-.36-.56.06-1.11.16-1.67.29-1.41.33-2.77.86-4.03,1.58-.24.14-.55.05-.68-.19-.14-.24-.05-.55.19-.68,1.35-.77,2.8-1.34,4.31-1.69,1.73-.4,3.5-.5,5.27-.31.25.03.44.24.45.49,0,.25-.18.47-.43.5-1.27.19-2.48.61-3.59,1.24-1.2.69-2.24,1.6-3.09,2.7-.1.13-.25.2-.4.2Z"/>
    <path class="cls-1" d="M25.44,28.26c-.15,0-.3-.07-.4-.2-.84-1.11-1.88-2.02-3.09-2.7-1.11-.64-2.32-1.05-3.59-1.24-.25-.04-.43-.25-.43-.5,0-.25.2-.46.45-.49,1.77-.19,3.54-.09,5.27.31,1.51.35,2.96.92,4.31,1.69.24.14.32.44.19.68-.14.24-.44.32-.68.19-1.26-.72-2.62-1.26-4.03-1.58-.55-.13-1.11-.22-1.67-.29.23.11.46.23.69.36,1.32.75,2.46,1.75,3.39,2.97.17.22.12.53-.09.7-.09.07-.2.1-.3.1Z"/>
  </g>
  <path class="cls-1" d="M24.41,9.49h-1.88v-3.3s0-.1-.02-.14c-.46-1.48-1.48-2.8-2.86-3.73-1.39-.94-3.04-1.44-4.77-1.45-.02,0-.04,0-.06,0-3.57,0-6.73,2.13-7.69,5.19-.01.05-.02.09-.02.14v3.3h-1.5c-.26,0-.48.21-.48.48s.21.48.48.48h2.43c.26,0,.48-.21.48-.48s-.2-.46-.45-.48v-3.22c.86-2.63,3.63-4.45,6.76-4.45.02,0,.04,0,.06,0,3.1.02,5.85,1.85,6.7,4.45v3.22c-.25.01-.45.22-.45.48s.21.48.48.48h2.81c.26,0,.48-.21.48-.48s-.21-.48-.48-.48Z"/>
  <g>
    <polygon class="cls-1" points="10.52 11.23 11.68 11.23 13.84 7.5 14.23 8.18 13.66 9.17 15.96 9.17 13.83 5.5 10.52 11.23"/>
    <polygon class="cls-1" points="14.82 3.79 14.23 4.82 17.53 10.54 16.75 10.54 16.35 9.86 13.26 9.86 12.47 11.23 19.12 11.23 14.82 3.79"/>
  </g>
</svg>